<svg version="1.1" id="Layer_1" xmlns="http://www.w3.org/2000/svg" xmlns:xlink="http://www.w3.org/1999/xlink" x="0px" y="0px"
	 width="100%" viewBox="0 0 1024 1024" enable-background="new 0 0 1024 1024" xml:space="preserve">
<path fill="#000000" opacity="1.000000" stroke="none" 
	d="
M408.999878,772.386902 
	C387.504089,772.384094 366.507751,772.301147 345.513123,772.452881 
	C341.810730,772.479675 339.489136,771.415771 337.273285,768.302063 
	C319.735504,743.657959 295.352783,731.168640 265.467010,730.559082 
	C238.543793,730.009949 215.016266,739.572754 195.571823,758.486084 
	C192.337646,761.631958 189.755676,765.368103 187.555069,769.295837 
	C186.242599,771.638367 184.568466,772.567017 181.919540,772.388367 
	C170.592773,771.624512 160.063736,768.302429 150.271225,762.637695 
	C132.197708,752.182617 118.801353,737.207275 108.426147,719.290222 
	C94.870522,695.880981 87.677834,670.539307 84.522804,643.787231 
	C80.968231,613.647339 82.972839,583.951172 91.887390,555.030518 
	C100.290779,527.768188 113.129822,502.860260 136.164383,484.666290 
	C147.855179,475.432251 160.120926,467.061035 175.465515,465.197906 
	C181.396133,464.477814 187.397949,463.996429 193.367493,463.994843 
	C401.825226,463.939758 610.283020,463.911560 818.740662,464.074890 
	C830.511169,464.084106 842.387268,463.977997 854.085022,466.035950 
	C872.787415,469.326233 886.753662,480.565948 899.218933,493.803894 
	C919.920715,515.788940 931.117676,542.633484 937.253296,571.767883 
	C946.512512,615.734253 943.117615,658.827820 926.115417,700.399780 
	C916.548584,723.791565 902.915771,744.606506 881.242798,759.083496 
	C870.247375,766.428162 857.775391,769.007385 845.139832,771.269531 
	C842.254761,771.786011 840.011475,770.797363 838.313660,768.260132 
	C822.999573,745.375183 799.658081,734.589539 774.081299,730.993591 
	C739.334961,726.108459 709.906860,738.465088 688.508301,767.093384 
	C685.503784,771.113098 682.715271,772.479858 677.944580,772.473389 
	C588.463135,772.352417 498.981476,772.385620 408.999878,772.386902 
M198.337982,551.031738 
	C199.039978,548.126648 199.840012,545.241028 200.424332,542.312500 
	C201.793320,535.451111 199.855713,530.687378 194.827133,528.226868 
	C187.231384,524.510254 181.295731,528.026550 178.502823,537.796509 
	C170.867905,564.504272 168.595108,591.963806 167.449081,619.520386 
	C166.778214,635.651550 169.041962,651.671631 171.724686,667.546814 
	C173.155777,676.015320 173.954239,684.704895 177.586609,692.694580 
	C179.426941,696.742432 182.101456,699.615295 186.882751,699.909058 
	C195.845551,700.459656 200.422836,694.183533 198.341736,684.135498 
	C193.924301,662.807007 191.154404,641.266296 190.693893,619.486755 
	C190.210724,596.634338 193.145081,574.110474 198.337982,551.031738 
z"/>
<path fill="#000000" opacity="1.000000" stroke="none" 
	d="
M446.306274,362.000061 
	C445.951691,371.635986 446.704681,380.766998 445.507263,389.927704 
	C444.126923,400.487396 438.541168,407.261383 428.958099,411.131836 
	C423.352905,413.395721 417.584473,414.421600 411.449127,414.404327 
	C360.620972,414.261292 309.792328,414.310059 258.963806,414.292084 
	C251.718796,414.289520 251.718155,414.268036 251.715393,407.212250 
	C251.692642,349.051208 251.668015,290.890137 251.650238,232.729095 
	C251.648087,225.662216 251.665405,225.640762 258.762543,225.643250 
	C310.757568,225.661499 362.752686,225.649048 414.747620,225.736435 
	C431.805115,225.765106 441.827789,233.581863 444.901520,249.646927 
	C446.047516,255.636551 446.200562,261.879517 446.226349,268.009430 
	C446.357452,299.172516 446.298309,330.336426 446.306274,362.000061 
M393.167633,318.008484 
	C390.458893,316.880768 387.586090,317.204895 384.787292,317.202271 
	C352.970642,317.172333 321.153687,317.148712 289.337250,317.252289 
	C276.885223,317.292816 278.408478,315.841827 278.159515,328.591492 
	C278.071381,333.103668 279.845642,334.827484 284.341339,334.818176 
	C318.656464,334.747070 352.971832,334.811890 387.287140,334.824493 
	C390.830444,334.825806 395.047882,335.027924 396.065491,330.862122 
	C397.081268,326.703827 398.252014,321.895569 393.167633,318.008484 
M320.500092,269.375397 
	C309.671356,269.375275 298.842651,269.368439 288.013916,269.377045 
	C278.477783,269.384613 278.216736,269.654999 278.251129,279.201263 
	C278.275635,285.994019 278.891846,286.640198 285.700745,286.642303 
	C319.686188,286.652802 353.671600,286.650574 387.657043,286.641754 
	C395.177826,286.639801 396.727112,285.054932 396.650757,277.564941 
	C396.585724,271.189972 394.600647,269.411682 386.972015,269.393250 
	C365.148163,269.340576 343.324097,269.375244 320.500092,269.375397 
z"/>
<path fill="#000000" opacity="1.000000" stroke="none" 
	d="
M705.165894,272.808899 
	C720.102966,284.572662 734.315674,296.592621 747.712769,309.630554 
	C756.719666,318.395966 762.155518,329.046844 766.744812,340.340271 
	C771.205261,351.316711 774.657043,362.614716 774.977478,374.566986 
	C775.333679,387.856567 770.636108,400.006622 765.759644,412.045715 
	C763.886963,416.668945 761.635498,421.138336 759.569946,425.683868 
	C757.388855,430.483429 758.500000,432.216461 763.843689,431.489746 
	C769.351990,430.740692 774.768311,430.656830 780.233948,431.612061 
	C785.876953,432.598297 790.506531,437.384216 791.161743,443.044250 
	C791.977783,450.093781 788.024536,454.860260 780.706726,455.316772 
	C774.894043,455.679382 769.062866,455.910797 763.239746,455.916077 
	C701.273682,455.972412 639.307556,455.986084 577.341492,455.959442 
	C572.518250,455.957367 567.685303,455.690491 562.874512,455.318604 
	C557.494568,454.902740 554.891418,451.976898 554.674011,446.524384 
	C554.310364,437.406281 559.751831,431.570862 568.849976,431.691559 
	C573.990662,431.759705 579.121033,432.422913 584.263672,432.609985 
	C586.488464,432.690887 589.316406,433.345825 590.467468,430.664581 
	C591.510803,428.234497 589.255859,426.608795 587.839478,425.157867 
	C577.956787,415.033905 572.631836,402.653351 569.695435,389.076508 
	C565.611511,370.194824 569.384460,352.289948 575.989563,334.545288 
	C583.097107,315.451141 598.360901,304.973877 615.079163,295.789215 
	C617.265808,294.587921 619.650696,293.730377 621.775452,292.437012 
	C626.616516,289.490143 626.951294,285.051636 622.725891,281.367737 
	C614.666016,274.340881 607.489746,266.475861 600.735046,258.212097 
	C599.920471,257.215515 598.789124,256.315674 599.304077,253.889084 
	C603.672852,254.788864 608.080261,255.636917 612.460083,256.609192 
	C629.606995,260.415619 646.539368,258.649597 663.244995,254.231384 
	C672.549072,251.770676 680.481995,253.198685 687.838196,259.531921 
	C693.253723,264.194336 699.188293,268.253937 705.165894,272.808899 
M631.693970,361.128510 
	C626.694397,386.966400 647.647522,406.726898 667.867737,409.265808 
	C687.213989,411.694946 710.747498,399.966156 715.406006,375.040192 
	C719.189575,354.795776 706.690735,333.505951 682.388611,328.510498 
	C659.864075,323.880493 636.680786,338.714935 631.693970,361.128510 
z"/>
<path fill="#000000" opacity="1.000000" stroke="none" 
	d="
M774.277039,896.709961 
	C731.155701,902.787659 697.398865,877.041382 690.157837,838.375244 
	C682.168213,795.711914 706.254517,757.541870 751.973267,750.290649 
	C792.540222,743.856567 830.720398,768.718567 836.860718,812.471008 
	C843.083191,856.808594 813.668457,890.288879 774.277039,896.709961 
M755.099548,856.416199 
	C758.525513,857.000732 761.890686,857.996338 765.445618,857.580261 
	C782.811279,855.547546 793.071838,846.290588 796.878540,829.163940 
	C801.354004,809.028320 782.393738,787.072876 761.819336,788.566345 
	C745.996643,789.714905 730.781006,803.324463 729.374512,817.586426 
	C727.503662,836.555786 736.979126,851.203064 755.099548,856.416199 
z"/>
<path fill="#000000" opacity="1.000000" stroke="none" 
	d="
M320.636871,869.579712 
	C303.020142,891.432312 280.529175,899.978394 253.021851,897.592773 
	C222.975296,894.987000 194.855850,871.684937 188.948792,837.678223 
	C181.214951,793.154724 210.198029,758.366211 248.556885,751.152649 
	C292.803314,742.831848 330.030121,771.880859 335.913757,812.889038 
	C338.846710,833.331299 333.580627,852.549927 320.636871,869.579712 
M259.595093,789.561035 
	C242.575928,791.323364 231.231400,801.179688 227.873169,817.121643 
	C225.044601,830.549194 232.336700,846.452759 244.473618,853.326172 
	C256.357666,860.056458 273.131927,858.877319 283.542419,850.580078 
	C294.217712,842.071655 299.045898,825.864258 294.963409,812.241516 
	C290.926392,798.770508 277.268524,789.794006 259.595093,789.561035 
z"/>
<path fill="#000000" opacity="1.000000" stroke="none" 
	d="
M176.362457,242.368530 
	C190.981216,227.783295 208.956253,224.791809 228.185120,225.705566 
	C230.182922,225.800491 231.312958,226.599579 231.296494,228.707993 
	C231.287384,229.873657 231.344788,231.039719 231.344849,232.205612 
	C231.347565,290.681335 231.349945,349.157074 231.343704,407.632812 
	C231.342987,414.299591 231.318405,414.389893 224.849762,414.299255 
	C218.195740,414.206055 211.474731,415.032532 204.897751,413.835419 
	C185.121140,410.235718 167.211121,391.247986 163.670212,370.502625 
	C162.996307,366.554321 162.670959,362.599304 162.675629,358.592224 
	C162.707458,331.270294 162.503067,303.946381 162.778809,276.627167 
	C162.908615,263.765045 167.011292,252.126678 176.362457,242.368530 
z"/>
<path fill="#000000" opacity="1.000000" stroke="none" 
	d="
M635.154175,100.744499 
	C673.531494,101.039612 705.248474,127.936913 710.058411,164.887909 
	C715.608643,207.526688 687.892090,234.523529 655.194458,242.354141 
	C640.522217,245.867935 626.042053,246.600021 611.548462,241.463333 
	C600.900635,237.689621 592.761475,230.740494 584.744690,222.974380 
	C557.789307,196.861832 562.222473,151.244888 579.996277,130.109406 
	C594.362183,113.026497 612.134155,102.491516 635.154175,100.744499 
M598.641663,198.855286 
	C608.140381,213.951263 621.236206,222.041183 639.597717,219.924332 
	C641.249817,219.733856 642.942505,219.859833 644.584167,219.619492 
	C662.849121,216.945602 677.369568,208.328674 683.914795,190.619675 
	C692.274536,168.001343 684.364746,150.592407 666.702332,136.002426 
	C637.489929,111.871666 602.717468,130.284866 591.643677,161.234573 
	C587.074219,174.005219 590.407654,186.900375 598.641663,198.855286 
z"/>
<path fill="#000000" opacity="1.000000" stroke="none" 
	d="
M795.501587,300.529419 
	C771.918274,276.759979 748.615295,253.216354 725.226562,229.758194 
	C723.098206,227.623611 722.387268,225.618286 723.144531,222.658325 
	C724.637390,216.822556 726.950378,211.304916 729.303589,205.813568 
	C731.568115,200.529266 736.771057,198.940536 741.662903,202.092880 
	C744.140259,203.689301 746.745117,205.670547 748.223389,208.122330 
	C752.237793,214.779938 759.012329,218.523544 764.033569,224.072739 
	C766.434387,226.725906 768.552246,227.057892 771.367432,223.927414 
	C776.961304,217.707199 783.879089,212.951813 790.963623,208.575027 
	C799.242737,203.460297 809.736877,204.893219 816.703674,211.703705 
	C828.378967,223.117004 829.131042,236.616302 818.826721,250.104645 
	C815.583984,254.349365 812.075562,258.388519 807.944580,261.766602 
	C805.217896,263.996307 805.136841,265.717651 807.615967,268.187317 
	C813.983032,274.530090 820.111511,281.112244 826.469849,287.464142 
	C830.691528,291.681580 831.043701,295.034668 827.317261,299.616669 
	C818.911804,309.951996 806.302246,310.416168 795.501587,300.529419 
z"/>
<path fill="#000000" opacity="1.000000" stroke="none" 
	d="
M249.480377,177.046967 
	C254.798004,175.333298 259.857056,174.620926 265.061798,174.631393 
	C288.391754,174.678284 311.721893,174.630920 335.051910,174.656357 
	C349.590393,174.672195 357.786224,181.485184 360.155121,195.826706 
	C360.854523,200.060867 361.592072,204.353775 361.159485,208.730637 
	C360.920410,211.149918 359.925385,212.408752 357.413727,212.333466 
	C355.749023,212.283554 354.081329,212.338455 352.414978,212.338577 
	C316.086761,212.341110 279.758545,212.347855 243.430328,212.339279 
	C236.803146,212.337723 236.772156,212.308517 236.764206,205.707062 
	C236.758804,201.222580 236.694778,196.766876 237.556580,192.286758 
	C238.915543,185.222321 242.245834,179.921509 249.480377,177.046967 
z"/>
<path fill="#000000" opacity="1.000000" stroke="none" 
	d="
M247.023453,430.926788 
	C295.574860,430.872375 343.660980,430.804810 391.747131,430.738617 
	C399.339172,430.728149 399.342194,430.730927 399.347687,438.342926 
	C399.351318,443.337921 399.164917,448.341461 399.401489,453.325134 
	C399.580627,457.098267 398.006958,458.338501 394.428802,458.199432 
	C389.773712,458.018494 385.106537,458.144592 380.444580,458.145416 
	C337.487579,458.152832 294.530609,458.169342 251.573608,458.164337 
	C242.191254,458.163239 241.655869,457.594025 241.651581,448.235901 
	C241.649673,444.073395 241.801727,439.904236 241.612839,435.750427 
	C241.446426,432.090698 242.838547,430.410767 247.023453,430.926788 
z"/>
<path fill="#000000" opacity="1.000000" stroke="none" 
	d="
M830.080688,341.681946 
	C839.519958,342.135254 848.547974,340.627380 857.434814,342.644348 
	C865.656860,344.510437 868.328674,347.835510 868.339905,356.179016 
	C868.363281,373.498169 868.205261,390.819275 868.437317,408.135345 
	C868.499268,412.755402 867.414673,414.578217 862.401917,414.480499 
	C846.920410,414.178711 831.429077,414.319458 815.942261,414.410553 
	C812.731201,414.429413 810.847168,413.604614 810.929138,409.990601 
	C811.332764,392.193817 810.025696,374.366699 811.614563,356.596436 
	C812.631409,345.223724 817.128601,341.682098 830.080688,341.681946 
z"/>
<path fill="#000000" opacity="1.000000" stroke="none" 
	d="
M554.318726,175.188721 
	C553.913391,181.325287 554.963867,186.877914 556.154480,192.842026 
	C550.605835,193.998383 545.271240,193.170334 540.060669,194.239761 
	C526.825134,196.956238 520.432739,204.323578 520.314392,217.689285 
	C520.220337,228.310028 521.046448,238.977142 518.393860,249.473557 
	C513.897827,267.263916 499.586304,279.530975 481.214325,281.475891 
	C476.401886,281.985321 471.622742,282.354279 466.789093,282.365692 
	C463.805267,282.372772 462.583801,281.135529 462.641510,278.175873 
	C462.742188,273.014771 462.770233,267.847687 462.632660,262.688293 
	C462.551392,259.641052 463.851654,258.649933 466.788147,258.599457 
	C470.601715,258.533966 474.408386,258.028320 478.216553,257.694855 
	C490.046173,256.659119 497.309387,249.040802 497.606323,237.062576 
	C497.792023,229.572266 497.787476,222.070740 497.625763,214.579483 
	C497.080109,189.303894 516.699219,172.669113 538.571533,170.659912 
	C542.373901,170.310623 546.205872,170.237015 550.026733,170.149124 
	C553.067139,170.079178 554.723938,171.477173 554.318726,175.188721 
z"/>
<path fill="#000000" opacity="1.000000" stroke="none" 
	d="
M838.998169,191.316315 
	C822.173035,191.304276 805.847900,191.298828 789.522827,191.293488 
	C789.356201,191.293442 789.189636,191.294907 789.023010,191.296204 
	C777.939575,191.382446 772.586609,184.114273 775.966187,173.329208 
	C777.396790,168.763885 781.207764,167.692673 785.500916,167.693024 
	C801.161316,167.694321 816.821655,167.694595 832.482056,167.695618 
	C847.642639,167.696625 862.803284,167.666702 877.963684,167.712112 
	C885.994690,167.736160 889.849426,171.720779 889.804138,179.756027 
	C889.761108,187.392532 885.853699,191.289963 877.982605,191.322388 
	C865.154724,191.375244 852.326355,191.327957 838.998169,191.316315 
z"/>
<path fill="#000000" opacity="1.000000" stroke="none" 
	d="
M704.775757,243.746918 
	C707.309082,241.302032 709.815369,239.285431 711.777588,236.833374 
	C714.436707,233.510483 716.299744,233.685822 719.222778,236.777863 
	C730.434814,248.638458 741.878113,260.282227 753.323608,271.919891 
	C763.018066,281.777191 772.922607,291.428925 782.560547,301.340393 
	C787.479919,306.399292 787.337524,306.595886 782.512451,311.566864 
	C779.154968,315.025879 775.984802,318.692932 771.789429,321.247192 
	C769.835693,322.436646 768.421753,322.687256 766.692993,320.591644 
	C753.197998,304.232269 737.411316,290.096985 722.368896,275.240295 
	C715.732544,268.685852 708.918091,262.309662 702.354797,255.683838 
	C697.268066,250.548676 697.386414,250.432968 702.670044,245.675690 
	C703.289001,245.118423 703.894592,244.546387 704.775757,243.746918 
z"/>
<path fill="#000000" opacity="1.000000" stroke="none" 
	d="
M874.000916,216.653976 
	C893.792603,216.655563 913.084900,216.723068 932.376160,216.613403 
	C937.226501,216.585846 940.824951,218.024750 942.503479,222.865845 
	C944.233643,227.855804 942.860352,235.145813 939.733948,237.839035 
	C938.082275,239.261841 936.131042,239.378525 934.109680,239.378128 
	C908.996948,239.373154 883.884277,239.380936 858.771545,239.358643 
	C857.622620,239.357635 856.387634,239.328125 855.340515,238.926514 
	C851.278870,237.368683 849.290161,230.928696 850.827881,223.804703 
	C851.751404,219.526535 854.130493,216.596558 859.032349,216.651581 
	C863.854675,216.705704 868.678162,216.657562 874.000916,216.653976 
z"/>
<path fill="#000000" opacity="1.000000" stroke="none" 
	d="
M541.981201,329.227753 
	C531.277649,329.330688 520.829041,328.837250 510.392029,328.573853 
	C495.777374,328.205048 481.098358,327.378510 466.488220,329.188965 
	C463.440094,329.566681 462.796539,327.405518 462.750092,325.093231 
	C462.643066,319.764099 462.744507,314.431061 462.678009,309.100647 
	C462.644501,306.412598 464.137085,305.687195 466.477478,305.719025 
	C489.929291,306.037964 513.393005,302.894562 536.823608,305.779541 
	C542.322327,306.456604 548.039673,306.471252 553.951416,309.017029 
	C550.696350,316.350311 544.926086,321.786987 541.981201,329.227753 
z"/>
<path fill="#000000" opacity="1.000000" stroke="none" 
	d="
M569.526245,307.070068 
	C568.168518,307.129608 567.084045,307.321259 566.215942,306.973328 
	C552.018311,301.283295 544.628235,280.855316 551.770569,267.184631 
	C555.922485,259.237732 565.020691,255.264633 573.930359,256.201538 
	C581.318115,256.978424 586.619141,260.186340 590.964661,265.927124 
	C593.665771,269.495422 596.936340,272.628021 599.868591,276.027496 
	C602.216003,278.749023 602.248779,281.286163 599.196533,283.688141 
	C589.397400,291.399658 579.660889,299.190735 569.526245,307.070068 
z"/>
<path fill="#000000" opacity="1.000000" stroke="none" 
	d="
M875.006714,265.640808 
	C883.490723,265.644501 891.476807,265.586365 899.461243,265.672211 
	C905.695496,265.739197 908.838196,268.852966 909.316589,275.164764 
	C909.967102,283.749664 907.820129,287.894196 901.163208,288.522400 
	C888.417297,289.725220 875.586975,289.573273 862.837341,288.529816 
	C856.382446,288.001526 853.904114,283.057831 854.700500,274.511017 
	C855.256165,268.548126 858.354248,265.730957 864.526428,265.648071 
	C867.853088,265.603363 871.180786,265.640686 875.006714,265.640808 
z"/>
<path fill="#000000" opacity="1.000000" stroke="none" 
	d="
M836.035889,456.366791 
	C825.598389,456.325165 826.735229,457.251038 826.655823,447.596741 
	C826.620239,443.268646 826.740112,438.938049 826.636902,434.612213 
	C826.571594,431.871155 827.673950,430.695557 830.447693,430.721252 
	C837.938293,430.790649 845.430115,430.720337 852.921448,430.728119 
	C854.675354,430.729950 856.350525,430.924164 856.350342,433.304199 
	C856.349792,440.757812 856.350220,448.211426 856.350220,456.366089 
	C849.394836,456.366089 842.962952,456.366089 836.035889,456.366791 
z"/>
<path fill="#000000" opacity="1.000000" stroke="none" 
	d="
M659.943970,384.094208 
	C651.265137,376.338074 651.157715,361.521240 661.344238,352.378113 
	C668.935425,345.564453 685.206909,348.103668 691.196045,359.825348 
	C695.829041,368.892792 693.682251,378.958862 685.774109,385.384796 
	C678.473083,391.317535 668.696533,390.923859 659.943970,384.094208 
z"/>
<path fill="#000000" opacity="1.000000" stroke="none" 
	d="
M623.521851,182.478485 
	C620.640991,179.393463 621.169250,176.897949 624.037964,174.605530 
	C625.205872,173.672211 626.234192,172.544998 627.466797,171.715042 
	C637.368530,165.048111 645.809753,156.988892 651.597717,145.647766 
	C656.542908,148.764725 661.072632,151.458679 665.422241,154.417587 
	C668.365479,156.419815 667.558960,159.098907 665.743164,161.354324 
	C661.681213,166.399796 657.607544,171.455353 653.223267,176.216476 
	C648.500000,181.345749 643.377014,186.104858 638.508850,191.103806 
	C636.340271,193.330688 634.555847,193.568069 632.305969,191.089203 
	C629.633972,188.145248 626.622742,185.509216 623.521851,182.478485 
z"/>
</svg>