<svg viewBox="0 0 64 64" xmlns="http://www.w3.org/2000/svg" aria-label="Polisher Icon V2">
  <g fill="none" stroke="currentColor" stroke-width="2.2" stroke-linecap="round" stroke-linejoin="round">
    <!-- Đế mút đánh bóng (ellipse phối cảnh) -->
    <ellipse cx="18" cy="47" rx="10" ry="5"></ellipse>
    <ellipse cx="18" cy="47" rx="6" ry="3" fill="currentColor" opacity=".08"></ellipse>
    <circle cx="18" cy="47" r="2.2"></circle>

    <!-- Trục + cổ máy -->
    <path d="M18 42 v3"></path>
    <path d="M20 41 L30 34 L36 33"></path>

    <!-- Cụm đầu truyền động -->
    <circle cx="30" cy="34" r="4"></circle>
    <path d="M26 33 a6 6 0 0 1 12 0"></path>

    <!-- Thân động cơ -->
    <rect x="34" y="28" width="12" height="8" rx="3"></rect>
    <!-- Lỗ thoát gió / khe tản -->
    <path d="M36 30 h8 M36 33 h8" stroke-width="1.6"></path>

    <!-- Tay cầm sau -->
    <rect x="44" y="30" width="12" height="5" rx="2.5"></rect>
    <path d="M56 32 h2 a3 3 0 0 1 0 5 h-2"></path>  <!-- chụp đuôi -->

    <!-- Duotone nhẹ cho thân -->
    <rect x="34" y="28" width="12" height="8" rx="3" fill="currentColor" opacity=".10"></rect>
    <rect x="44" y="30" width="12" height="5" rx="2.5" fill="currentColor" opacity=".06"></rect>
  </g>
</svg>
